<svg xmlns="http://www.w3.org/2000/svg" xmlns:xlink="http://www.w3.org/1999/xlink" width="500" zoomAndPan="magnify" viewBox="0 120 375 110" height="147" preserveAspectRatio="xMidYMid meet" version="1.0"><defs><g/><clipPath id="f8dd70a4a6"><path d="M 6.300781 136 L 89 136 L 89 219.742188 L 6.300781 219.742188 Z M 6.300781 136 " clip-rule="nonzero"/></clipPath><clipPath id="9ce2304e05"><path d="M 78 146 L 108.300781 146 L 108.300781 176 L 78 176 Z M 78 146 " clip-rule="nonzero"/></clipPath><clipPath id="1724910764"><path d="M 192 0.078125 L 246 0.078125 L 246 90 L 192 90 Z M 192 0.078125 " clip-rule="nonzero"/></clipPath><clipPath id="8512006237"><rect x="0" width="250" y="0" height="123"/></clipPath><clipPath id="0da29a0ca4"><path d="M 29.90625 160.5 L 65 160.5 L 65 195 L 29.90625 195 Z M 29.90625 160.5 " clip-rule="nonzero"/></clipPath></defs><g clip-path="url(#f8dd70a4a6)"><path fill="#cfa756" d="M 47.574219 219.414062 C 47.738281 219.414062 47.875 219.289062 47.890625 219.125 C 50.246094 195.921875 65.425781 180.734375 88.628906 178.386719 C 88.792969 178.371094 88.917969 178.234375 88.917969 178.070312 L 88.917969 178.0625 C 88.917969 177.898438 88.792969 177.765625 88.628906 177.746094 C 65.425781 175.394531 50.238281 160.210938 47.890625 137.011719 C 47.875 136.847656 47.738281 136.722656 47.574219 136.722656 C 47.402344 136.722656 47.261719 136.847656 47.246094 137.011719 C 44.890625 160.210938 29.710938 175.398438 6.507812 177.746094 C 6.34375 177.765625 6.21875 177.898438 6.21875 178.0625 L 6.21875 178.070312 C 6.21875 178.234375 6.34375 178.371094 6.507812 178.386719 C 29.710938 180.742188 44.898438 195.921875 47.246094 219.125 C 47.261719 219.289062 47.398438 219.414062 47.5625 219.414062 Z M 47.574219 219.414062 " fill-opacity="1" fill-rule="nonzero"/></g><g clip-path="url(#9ce2304e05)"><path fill="#cfa756" d="M 93.617188 175.371094 C 93.675781 175.371094 93.726562 175.324219 93.730469 175.269531 C 94.566406 167.027344 99.957031 161.636719 108.199219 160.800781 C 108.253906 160.796875 108.300781 160.746094 108.300781 160.6875 C 108.300781 160.632812 108.253906 160.578125 108.199219 160.574219 C 99.957031 159.742188 94.566406 154.347656 93.730469 146.105469 C 93.726562 146.050781 93.675781 146.003906 93.617188 146.003906 C 93.5625 146.003906 93.511719 146.050781 93.503906 146.105469 C 92.671875 154.347656 87.277344 159.742188 79.039062 160.574219 C 78.980469 160.578125 78.933594 160.632812 78.933594 160.6875 C 78.933594 160.746094 78.980469 160.796875 79.039062 160.800781 C 87.277344 161.636719 92.671875 167.027344 93.503906 175.269531 C 93.511719 175.324219 93.5625 175.371094 93.617188 175.371094 Z M 93.617188 175.371094 " fill-opacity="1" fill-rule="nonzero"/></g><path fill="#cfa756" d="M 69.980469 144.871094 C 70.019531 144.871094 70.046875 144.84375 70.054688 144.800781 C 70.585938 139.535156 74.042969 136.082031 79.308594 135.546875 C 79.347656 135.546875 79.378906 135.511719 79.378906 135.472656 C 79.378906 135.433594 79.347656 135.40625 79.308594 135.398438 C 74.042969 134.867188 70.585938 131.414062 70.054688 126.144531 C 70.054688 126.105469 70.019531 126.078125 69.980469 126.078125 C 69.941406 126.078125 69.914062 126.105469 69.90625 126.144531 C 69.375 131.414062 65.921875 134.867188 60.652344 135.398438 C 60.613281 135.398438 60.582031 135.433594 60.582031 135.472656 C 60.582031 135.511719 60.613281 135.542969 60.652344 135.546875 C 65.921875 136.082031 69.375 139.535156 69.90625 144.800781 C 69.90625 144.84375 69.941406 144.871094 69.980469 144.871094 Z M 69.980469 144.871094 " fill-opacity="1" fill-rule="nonzero"/><path fill="#cfa756" d="M 79.371094 210.703125 C 79.410156 210.703125 79.445312 210.675781 79.453125 210.632812 C 80.011719 205.09375 83.644531 201.464844 89.183594 200.902344 C 89.222656 200.902344 89.25 200.863281 89.25 200.824219 C 89.25 200.785156 89.222656 200.75 89.183594 200.742188 C 83.644531 200.183594 80.011719 196.550781 79.453125 191.011719 C 79.453125 190.972656 79.410156 190.945312 79.371094 190.945312 C 79.332031 190.945312 79.296875 190.972656 79.292969 191.011719 C 78.730469 196.550781 75.101562 200.183594 69.5625 200.742188 C 69.519531 200.742188 69.492188 200.785156 69.492188 200.824219 C 69.492188 200.863281 69.519531 200.898438 69.5625 200.902344 C 75.101562 201.464844 78.730469 205.09375 79.292969 210.632812 C 79.292969 210.675781 79.332031 210.703125 79.371094 210.703125 Z M 79.371094 210.703125 " fill-opacity="1" fill-rule="nonzero"/><g transform="matrix(1, 0, 0, 1, 111, 136)"><g clip-path="url(#8512006237)"><g fill="#3d5980" fill-opacity="1"><g transform="translate(0.954367, 87.780434)"><g><path d="M 52.109375 -68.796875 L 52.109375 -60.15625 C 52.109375 -55.425781 51.023438 -51.878906 48.859375 -49.515625 C 46.703125 -47.160156 43.460938 -45.820312 39.140625 -45.5 L 39.140625 -45.265625 C 43.859375 -44.941406 47.335938 -43.578125 49.578125 -41.171875 C 51.828125 -38.773438 52.953125 -35.21875 52.953125 -30.5 L 52.953125 0 L 32.296875 0 L 32.296875 -32.890625 C 32.296875 -37.617188 30.375 -39.984375 26.53125 -39.984375 C 25.65625 -39.984375 24.816406 -39.863281 24.015625 -39.625 L 24.015625 0 L 2.640625 0 L 2.640625 -85.71875 L 28.453125 -85.71875 C 33.578125 -85.71875 37.78125 -85.335938 41.0625 -84.578125 C 44.34375 -83.816406 47.003906 -82.21875 49.046875 -79.78125 C 51.085938 -77.34375 52.109375 -73.679688 52.109375 -68.796875 Z M 25.578125 -52.953125 C 28.140625 -52.953125 29.898438 -53.53125 30.859375 -54.6875 C 31.816406 -55.84375 32.296875 -57.179688 32.296875 -58.703125 L 32.296875 -66.28125 C 32.296875 -67.71875 31.816406 -69.035156 30.859375 -70.234375 C 29.898438 -71.429688 28.175781 -72.03125 25.6875 -72.03125 L 24.015625 -72.03125 L 24.015625 -52.953125 Z M 25.578125 -52.953125 "/></g></g></g><g fill="#3d5980" fill-opacity="1"><g transform="translate(56.53855, 87.780434)"><g><path d="M 24.734375 -19.8125 C 24.734375 -17.164062 25.132812 -15.421875 25.9375 -14.578125 C 26.738281 -13.742188 27.738281 -13.328125 28.9375 -13.328125 C 30.132812 -13.328125 31.132812 -13.742188 31.9375 -14.578125 C 32.738281 -15.421875 33.140625 -17.164062 33.140625 -19.8125 L 33.140625 -85.71875 L 55.234375 -85.71875 L 55.234375 -22.9375 C 55.234375 -6.445312 46.46875 1.796875 28.9375 1.796875 C 11.40625 1.796875 2.640625 -6.445312 2.640625 -22.9375 L 2.640625 -85.71875 L 24.734375 -85.71875 Z M 24.734375 -19.8125 "/></g></g></g><g fill="#3d5980" fill-opacity="1"><g transform="translate(114.403727, 87.780434)"><g><path d="M 37.8125 -35.65625 L 38.0625 -35.65625 L 43.21875 -85.71875 L 73 -85.71875 L 73 0 L 54.265625 0 L 54.265625 -63.640625 L 54.03125 -63.640625 L 44.78125 0 L 30.859375 0 L 21.609375 -63.640625 L 21.375 -63.640625 L 21.375 0 L 2.640625 0 L 2.640625 -85.71875 L 32.0625 -85.71875 Z M 37.8125 -35.65625 "/></g></g></g><g clip-path="url(#1724910764)"><g fill="#3d5980" fill-opacity="1"><g transform="translate(190.036634, 87.780434)"><g><path d="M 28.9375 -87.53125 C 37.5 -87.53125 44.019531 -85.488281 48.5 -81.40625 C 52.988281 -77.320312 55.234375 -70.71875 55.234375 -61.59375 L 55.234375 -24.125 C 55.234375 -15.082031 53.007812 -8.5 48.5625 -4.375 C 44.125 -0.257812 37.582031 1.796875 28.9375 1.796875 C 20.289062 1.796875 13.742188 -0.222656 9.296875 -4.265625 C 4.859375 -8.304688 2.640625 -14.925781 2.640625 -24.125 L 2.640625 -61.59375 C 2.640625 -70.632812 4.859375 -77.21875 9.296875 -81.34375 C 13.742188 -85.46875 20.289062 -87.53125 28.9375 -87.53125 Z M 24.734375 -67.828125 L 24.734375 -17.890625 C 24.734375 -16.210938 25.09375 -14.910156 25.8125 -13.984375 C 26.53125 -13.066406 27.570312 -12.609375 28.9375 -12.609375 C 30.289062 -12.609375 31.328125 -13.066406 32.046875 -13.984375 C 32.773438 -14.910156 33.140625 -16.210938 33.140625 -17.890625 L 33.140625 -67.828125 C 33.140625 -69.515625 32.773438 -70.816406 32.046875 -71.734375 C 31.328125 -72.660156 30.289062 -73.125 28.9375 -73.125 C 26.132812 -73.125 24.734375 -71.359375 24.734375 -67.828125 Z M 24.734375 -67.828125 "/></g></g></g></g></g></g><g clip-path="url(#0da29a0ca4)"><path fill="#ffffff" d="M 64.851562 177.84375 L 52.117188 175.296875 C 52.074219 175.285156 52.050781 175.234375 52.078125 175.195312 C 52.527344 174.535156 53.703125 172.738281 55.597656 169.8125 C 55.628906 169.761719 55.648438 169.722656 55.660156 169.695312 C 55.671875 169.652344 55.621094 169.613281 55.585938 169.640625 L 50.117188 173.222656 C 50.074219 173.246094 50.023438 173.230469 50.007812 173.1875 C 49.992188 173.140625 49.980469 173.109375 49.976562 173.089844 C 49.023438 168.230469 48.191406 164.066406 47.480469 160.597656 C 47.46875 160.53125 47.441406 160.5 47.402344 160.5 C 47.367188 160.5 47.339844 160.53125 47.328125 160.597656 C 46.613281 164.066406 45.78125 168.230469 44.828125 173.089844 C 44.824219 173.109375 44.816406 173.140625 44.796875 173.1875 C 44.78125 173.230469 44.730469 173.246094 44.691406 173.222656 L 39.222656 169.636719 C 39.183594 169.613281 39.132812 169.652344 39.148438 169.695312 C 39.15625 169.722656 39.175781 169.757812 39.210938 169.808594 C 41.105469 172.738281 42.28125 174.53125 42.726562 175.195312 C 42.753906 175.230469 42.734375 175.285156 42.6875 175.292969 L 29.957031 177.84375 C 29.9375 177.847656 29.921875 177.863281 29.917969 177.882812 C 29.914062 177.921875 29.929688 177.945312 29.96875 177.953125 C 33.054688 178.597656 37.304688 179.453125 42.71875 180.515625 C 42.75 180.523438 42.765625 180.5625 42.746094 180.589844 L 39.136719 186.097656 C 39.09375 186.160156 39.171875 186.238281 39.238281 186.195312 L 44.679688 182.570312 C 44.726562 182.539062 44.792969 182.566406 44.808594 182.625 C 45.605469 186.753906 46.445312 190.972656 47.332031 195.277344 C 47.339844 195.3125 47.363281 195.332031 47.402344 195.332031 C 47.441406 195.332031 47.464844 195.3125 47.46875 195.277344 C 48.355469 190.972656 49.199219 186.753906 50 182.625 C 50.011719 182.566406 50.074219 182.539062 50.125 182.570312 L 55.566406 186.195312 C 55.632812 186.238281 55.710938 186.164062 55.667969 186.097656 L 52.058594 180.589844 C 52.039062 180.5625 52.054688 180.523438 52.089844 180.519531 C 57.503906 179.453125 61.753906 178.597656 64.839844 177.957031 C 64.875 177.949219 64.890625 177.925781 64.886719 177.882812 C 64.882812 177.867188 64.867188 177.847656 64.851562 177.84375 Z M 44.394531 176.128906 C 44.101562 176.636719 43.941406 177.179688 43.910156 177.769531 C 43.90625 177.835938 43.851562 177.882812 43.789062 177.882812 C 41.4375 177.871094 38.6875 177.875 35.542969 177.898438 C 35.5 177.898438 35.464844 177.890625 35.433594 177.882812 C 35.410156 177.875 35.410156 177.835938 35.4375 177.828125 L 44.347656 176.0625 C 44.386719 176.054688 44.414062 176.09375 44.394531 176.128906 Z M 47.339844 189.632812 C 47.339844 189.671875 47.332031 189.710938 47.324219 189.738281 C 47.316406 189.765625 47.277344 189.761719 47.273438 189.738281 L 45.59375 180.980469 C 45.585938 180.945312 45.625 180.914062 45.660156 180.933594 C 46.152344 181.226562 46.6875 181.386719 47.265625 181.421875 C 47.328125 181.425781 47.378906 181.476562 47.375 181.542969 C 47.347656 183.847656 47.335938 186.542969 47.339844 189.632812 Z M 47.398438 179.519531 C 46.496094 179.519531 45.765625 178.789062 45.765625 177.886719 C 45.765625 176.984375 46.496094 176.253906 47.398438 176.253906 C 48.300781 176.253906 49.03125 176.984375 49.03125 177.886719 C 49.03125 178.789062 48.300781 179.519531 47.398438 179.519531 Z M 49.179688 174.90625 C 48.6875 174.625 48.152344 174.464844 47.578125 174.4375 C 47.515625 174.433594 47.464844 174.382812 47.464844 174.320312 C 47.472656 172.027344 47.460938 169.34375 47.429688 166.273438 C 47.429688 166.234375 47.4375 166.199219 47.445312 166.167969 C 47.453125 166.144531 47.492188 166.144531 47.496094 166.171875 L 49.246094 174.859375 C 49.253906 174.898438 49.214844 174.925781 49.179688 174.90625 Z M 59.378906 177.996094 L 50.441406 179.757812 C 50.402344 179.765625 50.375 179.726562 50.394531 179.691406 C 50.6875 179.183594 50.851562 178.636719 50.882812 178.046875 C 50.886719 177.980469 50.941406 177.929688 51.003906 177.929688 C 53.363281 177.945312 56.117188 177.945312 59.277344 177.925781 C 59.316406 177.925781 59.351562 177.933594 59.382812 177.941406 C 59.410156 177.949219 59.40625 177.988281 59.378906 177.996094 Z M 59.378906 177.996094 " fill-opacity="1" fill-rule="nonzero"/></g><path fill="#ffffff" d="M 33.007812 176.15625 L 34.925781 175.769531 C 35.011719 175.753906 35.078125 175.683594 35.09375 175.597656 C 35.582031 173.097656 36.757812 170.84375 38.5625 169.042969 C 40.363281 167.238281 42.621094 166.066406 45.121094 165.582031 C 45.207031 165.566406 45.277344 165.5 45.292969 165.410156 L 45.679688 163.496094 C 45.691406 163.445312 45.648438 163.402344 45.601562 163.40625 C 42.371094 163.78125 39.398438 165.242188 37.078125 167.558594 C 34.761719 169.875 33.296875 172.84375 32.921875 176.074219 C 32.914062 176.125 32.957031 176.164062 33.007812 176.15625 Z M 33.007812 176.15625 " fill-opacity="1" fill-rule="nonzero"/><path fill="#ffffff" d="M 49.703125 165.578125 C 52.207031 166.066406 54.464844 167.238281 56.269531 169.046875 C 58.074219 170.851562 59.25 173.109375 59.734375 175.617188 C 59.75 175.703125 59.820312 175.769531 59.90625 175.789062 L 61.824219 176.175781 C 61.875 176.183594 61.917969 176.140625 61.914062 176.09375 C 61.539062 172.859375 60.074219 169.882812 57.753906 167.5625 C 55.433594 165.242188 52.460938 163.777344 49.226562 163.402344 C 49.179688 163.394531 49.136719 163.4375 49.144531 163.488281 L 49.53125 165.40625 C 49.550781 165.496094 49.617188 165.5625 49.703125 165.578125 Z M 49.703125 165.578125 " fill-opacity="1" fill-rule="nonzero"/><path fill="#ffffff" d="M 61.8125 179.601562 L 59.890625 179.996094 C 59.804688 180.015625 59.734375 180.082031 59.71875 180.167969 C 59.242188 182.675781 58.078125 184.941406 56.277344 186.753906 C 54.480469 188.566406 52.222656 189.75 49.71875 190.25 C 49.632812 190.265625 49.566406 190.332031 49.546875 190.417969 L 49.167969 192.34375 C 49.160156 192.390625 49.203125 192.433594 49.25 192.429688 C 52.484375 192.042969 55.457031 190.5625 57.769531 188.234375 C 60.082031 185.902344 61.535156 182.921875 61.898438 179.683594 C 61.902344 179.632812 61.859375 179.59375 61.8125 179.601562 Z M 61.8125 179.601562 " fill-opacity="1" fill-rule="nonzero"/><path fill="#ffffff" d="M 45.574219 192.4375 C 45.621094 192.445312 45.664062 192.398438 45.652344 192.351562 L 45.273438 190.429688 C 45.257812 190.34375 45.1875 190.273438 45.101562 190.257812 C 42.597656 189.765625 40.34375 188.582031 38.542969 186.769531 C 36.742188 184.957031 35.574219 182.695312 35.097656 180.1875 C 35.082031 180.101562 35.015625 180.03125 34.925781 180.015625 L 33.007812 179.621094 C 32.957031 179.613281 32.914062 179.652344 32.921875 179.703125 C 33.285156 182.9375 34.742188 185.917969 37.054688 188.25 C 39.367188 190.578125 42.339844 192.050781 45.574219 192.4375 Z M 45.574219 192.4375 " fill-opacity="1" fill-rule="nonzero"/></svg>