<svg xmlns="http://www.w3.org/2000/svg" xmlns:xlink="http://www.w3.org/1999/xlink" width="500" zoomAndPan="magnify" viewBox="0 0 375 374.999991" height="500" preserveAspectRatio="xMidYMid meet" version="1.0"><defs><g/><clipPath id="69fc27a953"><path d="M 6.300781 136 L 89 136 L 89 219.742188 L 6.300781 219.742188 Z M 6.300781 136 " clip-rule="nonzero"/></clipPath><clipPath id="66c83c1b2c"><path d="M 78 146 L 108.300781 146 L 108.300781 176 L 78 176 Z M 78 146 " clip-rule="nonzero"/></clipPath><clipPath id="8a6f0ea116"><path d="M 192 0.078125 L 246 0.078125 L 246 90 L 192 90 Z M 192 0.078125 " clip-rule="nonzero"/></clipPath><clipPath id="5025ae10c2"><rect x="0" width="250" y="0" height="123"/></clipPath><clipPath id="77eefb002f"><path d="M 29.175781 159.265625 L 65.925781 159.265625 L 65.925781 196 L 29.175781 196 Z M 29.175781 159.265625 " clip-rule="nonzero"/></clipPath></defs><g clip-path="url(#69fc27a953)"><path fill="#cfa756" d="M 47.574219 219.414062 C 47.738281 219.414062 47.875 219.289062 47.890625 219.125 C 50.246094 195.921875 65.425781 180.734375 88.628906 178.386719 C 88.792969 178.371094 88.917969 178.234375 88.917969 178.070312 L 88.917969 178.0625 C 88.917969 177.898438 88.792969 177.765625 88.628906 177.746094 C 65.425781 175.394531 50.238281 160.210938 47.890625 137.011719 C 47.875 136.847656 47.738281 136.722656 47.574219 136.722656 C 47.402344 136.722656 47.261719 136.847656 47.246094 137.011719 C 44.890625 160.210938 29.710938 175.398438 6.507812 177.746094 C 6.34375 177.765625 6.21875 177.898438 6.21875 178.0625 L 6.21875 178.070312 C 6.21875 178.234375 6.34375 178.371094 6.507812 178.386719 C 29.710938 180.742188 44.898438 195.921875 47.246094 219.125 C 47.261719 219.289062 47.398438 219.414062 47.5625 219.414062 Z M 47.574219 219.414062 " fill-opacity="1" fill-rule="nonzero"/></g><g clip-path="url(#66c83c1b2c)"><path fill="#cfa756" d="M 93.617188 175.371094 C 93.675781 175.371094 93.726562 175.324219 93.730469 175.269531 C 94.566406 167.027344 99.957031 161.636719 108.199219 160.800781 C 108.253906 160.796875 108.300781 160.746094 108.300781 160.6875 C 108.300781 160.632812 108.253906 160.578125 108.199219 160.574219 C 99.957031 159.742188 94.566406 154.347656 93.730469 146.105469 C 93.726562 146.050781 93.675781 146.003906 93.617188 146.003906 C 93.5625 146.003906 93.511719 146.050781 93.503906 146.105469 C 92.671875 154.347656 87.277344 159.742188 79.039062 160.574219 C 78.980469 160.578125 78.933594 160.632812 78.933594 160.6875 C 78.933594 160.746094 78.980469 160.796875 79.039062 160.800781 C 87.277344 161.636719 92.671875 167.027344 93.503906 175.269531 C 93.511719 175.324219 93.5625 175.371094 93.617188 175.371094 Z M 93.617188 175.371094 " fill-opacity="1" fill-rule="nonzero"/></g><path fill="#cfa756" d="M 69.980469 144.871094 C 70.019531 144.871094 70.046875 144.84375 70.054688 144.800781 C 70.585938 139.535156 74.042969 136.082031 79.308594 135.546875 C 79.347656 135.546875 79.378906 135.511719 79.378906 135.472656 C 79.378906 135.433594 79.347656 135.40625 79.308594 135.398438 C 74.042969 134.867188 70.585938 131.414062 70.054688 126.144531 C 70.054688 126.105469 70.019531 126.078125 69.980469 126.078125 C 69.941406 126.078125 69.914062 126.105469 69.90625 126.144531 C 69.375 131.414062 65.921875 134.867188 60.652344 135.398438 C 60.613281 135.398438 60.582031 135.433594 60.582031 135.472656 C 60.582031 135.511719 60.613281 135.542969 60.652344 135.546875 C 65.921875 136.082031 69.375 139.535156 69.90625 144.800781 C 69.90625 144.84375 69.941406 144.871094 69.980469 144.871094 Z M 69.980469 144.871094 " fill-opacity="1" fill-rule="nonzero"/><path fill="#cfa756" d="M 79.371094 210.703125 C 79.410156 210.703125 79.445312 210.675781 79.453125 210.632812 C 80.011719 205.09375 83.644531 201.464844 89.183594 200.902344 C 89.222656 200.902344 89.25 200.863281 89.25 200.824219 C 89.25 200.785156 89.222656 200.75 89.183594 200.742188 C 83.644531 200.183594 80.011719 196.550781 79.453125 191.011719 C 79.453125 190.972656 79.410156 190.945312 79.371094 190.945312 C 79.332031 190.945312 79.296875 190.972656 79.292969 191.011719 C 78.730469 196.550781 75.101562 200.183594 69.5625 200.742188 C 69.519531 200.742188 69.492188 200.785156 69.492188 200.824219 C 69.492188 200.863281 69.519531 200.898438 69.5625 200.902344 C 75.101562 201.464844 78.730469 205.09375 79.292969 210.632812 C 79.292969 210.675781 79.332031 210.703125 79.371094 210.703125 Z M 79.371094 210.703125 " fill-opacity="1" fill-rule="nonzero"/><g transform="matrix(1, 0, 0, 1, 111, 136)"><g clip-path="url(#5025ae10c2)"><g fill="#3d5980" fill-opacity="1"><g transform="translate(0.954367, 87.780434)"><g><path d="M 52.109375 -68.796875 L 52.109375 -60.15625 C 52.109375 -55.425781 51.023438 -51.878906 48.859375 -49.515625 C 46.703125 -47.160156 43.460938 -45.820312 39.140625 -45.5 L 39.140625 -45.265625 C 43.859375 -44.941406 47.335938 -43.578125 49.578125 -41.171875 C 51.828125 -38.773438 52.953125 -35.21875 52.953125 -30.5 L 52.953125 0 L 32.296875 0 L 32.296875 -32.890625 C 32.296875 -37.617188 30.375 -39.984375 26.53125 -39.984375 C 25.65625 -39.984375 24.816406 -39.863281 24.015625 -39.625 L 24.015625 0 L 2.640625 0 L 2.640625 -85.71875 L 28.453125 -85.71875 C 33.578125 -85.71875 37.78125 -85.335938 41.0625 -84.578125 C 44.34375 -83.816406 47.003906 -82.21875 49.046875 -79.78125 C 51.085938 -77.34375 52.109375 -73.679688 52.109375 -68.796875 Z M 25.578125 -52.953125 C 28.140625 -52.953125 29.898438 -53.53125 30.859375 -54.6875 C 31.816406 -55.84375 32.296875 -57.179688 32.296875 -58.703125 L 32.296875 -66.28125 C 32.296875 -67.71875 31.816406 -69.035156 30.859375 -70.234375 C 29.898438 -71.429688 28.175781 -72.03125 25.6875 -72.03125 L 24.015625 -72.03125 L 24.015625 -52.953125 Z M 25.578125 -52.953125 "/></g></g></g><g fill="#3d5980" fill-opacity="1"><g transform="translate(56.53855, 87.780434)"><g><path d="M 24.734375 -19.8125 C 24.734375 -17.164062 25.132812 -15.421875 25.9375 -14.578125 C 26.738281 -13.742188 27.738281 -13.328125 28.9375 -13.328125 C 30.132812 -13.328125 31.132812 -13.742188 31.9375 -14.578125 C 32.738281 -15.421875 33.140625 -17.164062 33.140625 -19.8125 L 33.140625 -85.71875 L 55.234375 -85.71875 L 55.234375 -22.9375 C 55.234375 -6.445312 46.46875 1.796875 28.9375 1.796875 C 11.40625 1.796875 2.640625 -6.445312 2.640625 -22.9375 L 2.640625 -85.71875 L 24.734375 -85.71875 Z M 24.734375 -19.8125 "/></g></g></g><g fill="#3d5980" fill-opacity="1"><g transform="translate(114.403727, 87.780434)"><g><path d="M 37.8125 -35.65625 L 38.0625 -35.65625 L 43.21875 -85.71875 L 73 -85.71875 L 73 0 L 54.265625 0 L 54.265625 -63.640625 L 54.03125 -63.640625 L 44.78125 0 L 30.859375 0 L 21.609375 -63.640625 L 21.375 -63.640625 L 21.375 0 L 2.640625 0 L 2.640625 -85.71875 L 32.0625 -85.71875 Z M 37.8125 -35.65625 "/></g></g></g><g clip-path="url(#8a6f0ea116)"><g fill="#3d5980" fill-opacity="1"><g transform="translate(190.036634, 87.780434)"><g><path d="M 28.9375 -87.53125 C 37.5 -87.53125 44.019531 -85.488281 48.5 -81.40625 C 52.988281 -77.320312 55.234375 -70.71875 55.234375 -61.59375 L 55.234375 -24.125 C 55.234375 -15.082031 53.007812 -8.5 48.5625 -4.375 C 44.125 -0.257812 37.582031 1.796875 28.9375 1.796875 C 20.289062 1.796875 13.742188 -0.222656 9.296875 -4.265625 C 4.859375 -8.304688 2.640625 -14.925781 2.640625 -24.125 L 2.640625 -61.59375 C 2.640625 -70.632812 4.859375 -77.21875 9.296875 -81.34375 C 13.742188 -85.46875 20.289062 -87.53125 28.9375 -87.53125 Z M 24.734375 -67.828125 L 24.734375 -17.890625 C 24.734375 -16.210938 25.09375 -14.910156 25.8125 -13.984375 C 26.53125 -13.066406 27.570312 -12.609375 28.9375 -12.609375 C 30.289062 -12.609375 31.328125 -13.066406 32.046875 -13.984375 C 32.773438 -14.910156 33.140625 -16.210938 33.140625 -17.890625 L 33.140625 -67.828125 C 33.140625 -69.515625 32.773438 -70.816406 32.046875 -71.734375 C 31.328125 -72.660156 30.289062 -73.125 28.9375 -73.125 C 26.132812 -73.125 24.734375 -71.359375 24.734375 -67.828125 Z M 24.734375 -67.828125 "/></g></g></g></g></g></g><g clip-path="url(#77eefb002f)"><path fill="#ffffff" d="M 51.214844 175.792969 C 52.566406 173.769531 55.804688 169.367188 55.804688 169.367188 C 55.804688 169.367188 51.402344 172.605469 49.378906 173.957031 L 47.886719 162.941406 C 55.441406 163.125 62.050781 169.308594 62.230469 177.289062 Z M 43.867188 179.46875 C 42.515625 181.496094 39.273438 185.898438 39.273438 185.898438 C 39.273438 185.898438 43.675781 182.65625 45.703125 181.304688 L 47.195312 192.324219 C 40.058594 192.132812 33.03125 185.964844 32.851562 177.976562 Z M 49.378906 181.304688 C 51.402344 182.65625 55.804688 185.898438 55.804688 185.898438 C 55.804688 185.898438 52.566406 181.496094 51.214844 179.46875 L 62.230469 177.984375 C 62.046875 185.957031 55.015625 192.117188 47.882812 192.320312 Z M 32.847656 177.289062 C 33.027344 169.308594 39.640625 163.128906 47.195312 162.941406 L 45.703125 173.957031 C 43.675781 172.605469 39.273438 169.367188 39.273438 169.367188 C 39.273438 169.367188 42.515625 173.769531 43.867188 175.792969 Z M 29.171875 177.632812 L 31.46875 177.847656 C 31.59375 186.394531 38.777344 193.578125 47.324219 193.703125 L 47.539062 196 L 47.753906 193.703125 C 56.292969 193.574219 63.472656 186.398438 63.609375 177.863281 L 65.910156 177.632812 L 63.609375 177.414062 C 63.472656 168.875 56.300781 161.683594 47.757812 161.558594 L 47.539062 159.261719 L 47.308594 161.558594 C 38.773438 161.695312 31.597656 168.878906 31.46875 177.417969 Z M 29.171875 177.632812 " fill-opacity="1" fill-rule="nonzero"/></g></svg>